<svg width="54" height="54" viewBox="0 0 54 54" fill="none" xmlns="http://www.w3.org/2000/svg">
<path d="M32.9599 34.9146H36.1204V38.1937H32.9599V34.9146ZM28.7759 34.9146H31.9365V38.1937H28.7759V34.9146ZM50.8395 34.7897H54V51.6847H50.8395V34.7897ZM9.60201 44.3771C9.57191 43.5963 8.8495 42.0036 7.22408 40.8482C6.23077 40.1299 5.20736 40.005 4.69565 39.9113C3.49164 39.6927 2.49833 39.7551 1.89632 39.88C1.89632 40.9731 1.89632 42.0349 1.89632 43.1279C2.25753 43.1279 3.97324 43.1279 4.36455 43.2216C5.44816 43.4714 6.47157 44.3458 6.56187 45.6575C6.56187 46.6256 6.56187 47.5625 6.56187 48.5306H0V51.6535H9.57191V48.5306C9.57191 48.5306 9.57191 48.5306 9.60201 48.5306C9.60201 47.1877 9.60201 45.7824 9.60201 44.3771ZM15.3512 16.458C18.1806 17.5823 20.9799 18.6753 23.8094 19.7996C23.8094 24.3903 23.8395 28.9498 23.8395 33.5405C21.0702 35.3518 18.3311 37.1943 15.5619 39.0056C15.5017 31.4793 15.4114 23.9531 15.3512 16.458ZM29.4381 10.5869C30.1605 10.5869 30.8829 10.5869 31.6355 10.5869C31.6355 4.77824 27.0602 0.0313768 21.5518 0.00014744C16.1338 -0.0310819 11.5585 4.90316 11.3478 10.5869C12.1304 10.5869 12.8829 10.5869 13.6656 10.5869C13.6656 10.5244 13.6656 10.0248 13.6957 9.96232H14.9599C14.9599 10.0872 14.9298 10.462 14.9298 10.5869C15.4415 10.5869 15.9231 10.5869 16.4348 10.5869C16.5552 7.74503 18.7826 5.21545 21.4013 5.15299C24.2007 5.09053 26.6388 7.52642 26.6388 10.5869C27.1204 10.5869 27.5719 10.5869 28.0535 10.5869C28.0535 10.2746 28.0234 9.99354 27.9933 9.68125H29.4381C29.4381 9.99354 29.4381 10.3058 29.4381 10.5869ZM15.0201 9.46264H13.6957C13.9365 7.68257 14.689 6.08987 15.8027 4.8407L16.7659 5.84004C15.893 6.80815 15.2609 8.05732 15.0201 9.46264ZM21.5217 3.74767C19.8662 3.74767 18.3311 4.40349 17.1572 5.46529L16.1639 4.46595C17.5485 3.09185 19.3846 2.24866 21.3411 2.1862C23.4482 2.12374 25.4348 2.99817 26.9097 4.46595L25.8863 5.52775C24.7124 4.43472 23.1773 3.7789 21.5217 3.74767ZM27.8729 9.18158C27.602 7.93241 27.0301 6.80815 26.2174 5.9025L27.2408 4.8407C28.2943 6.02741 29.0468 7.52642 29.3177 9.18158H27.8729ZM48.6722 48.5618C47.3779 48.5618 45.4816 48.6555 44.4883 48.5618C44.0067 48.5306 43.2843 48.1871 43.0435 47.7498C42.2609 46.3445 42.5017 43.8774 44.0368 43.0967C44.699 42.7844 46.0535 42.7844 47.1672 42.8468C47.1672 41.3791 47.1672 39.9737 47.1672 39.9737C47.1672 39.9737 40.7258 39.193 39.9732 43.7213C39.612 45.8449 40.0033 47.8748 40.2743 48.5306H36.2408V39.7551H32.7191V48.5618H26.6087V40.0674H21.3712C19.8662 40.0987 18.1505 41.3478 18.1204 43.6588C18.1204 43.6588 18.1204 46.5007 18.1204 48.5618H14.6589V15.4587H28.806V33.6342H31.6355V11.1803H11.3177C11.4381 24.5464 11.5886 38.2873 11.709 51.6535H18.0903C18.0903 51.6535 18.1204 53.2462 18.0903 53.9645C19.6555 54.0582 21.1605 53.9333 21.9732 53.9645C23.2676 53.9957 23.6288 53.9957 23.99 53.9645C25.5251 53.8396 26.5184 51.8721 26.6087 51.6535H48.6722C48.6722 50.7166 48.6722 49.5299 48.6722 48.5618ZM23.9599 47.6874V49.4987C23.9298 49.6236 23.9599 50.6542 22.9666 50.8103C22.8462 50.8416 22.6957 50.8103 22.214 50.8103C21.913 50.8103 21.3411 50.8728 20.7391 50.8103C20.7391 50.4043 20.7391 49.4987 20.7391 49.4987V47.7498C20.7391 46.5944 20.7391 44.9704 20.7391 44.9704C20.6488 43.1904 21.4013 42.9405 21.9732 42.9405H23.9599V47.6874Z" fill="#014A01"/>
</svg>
