<svg width="38" height="49" viewBox="0 0 38 49" fill="none" xmlns="http://www.w3.org/2000/svg">
<path d="M34.1031 37.4625H20.7156V34.3969H34.1031V6.58125H37.2813V34.3969V37.4625H34.1031ZM37.0844 3.29063V0.140625L17.8469 0.0843751L20.6594 3.23438L37.0844 3.29063ZM20.7156 6.46875V8.325V9.61875H21.8969H25.1875H26.3688H29.6594H30.8407V8.325V6.46875H29.6594V8.325H26.3688V6.46875H25.1875V8.325H21.8969V6.46875H20.7156ZM27.8875 40.4438L30.8125 48.2625H29.0969L28.5625 46.6594H25.75L25.2156 48.2625H23.5L26.425 40.4438H27.8875ZM28.1125 45.3375L27.1281 42.4125L26.1438 45.3375H28.1125ZM27.8032 28.0406V23.2312H24.2594H20.7156V20.1938V14.8219V12.2906H24.2594H27.8032H30.6719H30.8688V28.0125V30.9656H27.8313H20.7438V28.0125H27.8032V28.0406ZM27.8032 20.1938V14.8219H24.2594V20.1938H27.8032ZM17.65 3.17812L14.4719 0V34.2281L17.65 37.3781V3.17812ZM11.8 45.6469C11.7719 46.6031 11.3219 47.0812 10.4219 47.0812C10 47.0812 9.66252 46.9688 9.4094 46.7437C9.15627 46.5187 9.04377 46.125 9.04377 45.6187V40.4438H7.44065V45.6469C7.44065 46.4906 7.7219 47.1656 8.25627 47.6437C8.79065 48.1219 9.5219 48.375 10.4219 48.375C11.35 48.375 12.0813 48.1219 12.6157 47.6156C13.15 47.1094 13.4313 46.4344 13.4313 45.5906V40.4438H11.8281V45.6469H11.8ZM21.8969 40.4438L20.8563 46.0125L19.5625 40.4438H18.1844L16.8906 46.0125L15.8219 40.4719H14.2188L15.9625 48.2906H17.5938L18.8594 43.0594L20.125 48.2906H21.7563L23.5 40.4719H21.8969V40.4438ZM4.88127 45L6.56877 48.2062V48.2906H4.85315L3.39065 45.3937H2.0969V48.2625H0.493774V40.4438H3.39065C4.31877 40.4438 5.0219 40.6406 5.52815 41.0625C6.0344 41.4844 6.28752 42.0469 6.28752 42.8062C6.28752 43.3406 6.17502 43.7906 5.95002 44.1281C5.6969 44.4937 5.3594 44.775 4.88127 45ZM4.65627 42.9469C4.65627 42.5812 4.54377 42.3 4.3469 42.075C4.15002 41.85 3.81252 41.7656 3.39065 41.7656H2.0969V44.1H3.39065C3.7844 44.1 4.1219 43.9875 4.31877 43.7906C4.5719 43.5938 4.65627 43.3125 4.65627 42.9469ZM11.3219 31.2188V28.1531V3.17812V0.0843751H8.14377H4.26252H1.0844V3.15V24.9187H4.26252V3.17812H8.1719V28.1531H1.0844V31.2188H8.14377H11.3219ZM37.5063 44.1844V44.55C37.5063 45.2812 37.3657 45.9281 37.0563 46.4906C36.7469 47.0531 36.325 47.5031 35.7906 47.8125C35.2563 48.1219 34.6375 48.2906 33.9344 48.2906H31.5156V40.4719H33.9344C34.6094 40.4719 35.2281 40.6406 35.7906 40.95C36.325 41.2594 36.7469 41.7094 37.0563 42.2719C37.3657 42.8344 37.5063 43.4531 37.5063 44.1844ZM35.875 44.1844C35.875 43.3969 35.7063 42.7781 35.3688 42.3844C35.0313 41.9625 34.5532 41.7656 33.9344 41.7656H33.1469V46.9969H33.9344C34.5532 46.9969 35.0594 46.8 35.3688 46.3781C35.7063 45.9562 35.875 45.3656 35.875 44.6063V44.1844ZM12.7844 34.3125H0.831274V37.4625H14.8094L12.7844 34.3125Z" fill="#014A01"/>
</svg>
